<?xml version="1.0" encoding="UTF-8" standalone="no"?>
<svg
   version="1.1"
   viewBox="0 0 1174.7548 1158.799"
   id="svg45"
   sodipodi:docname="bismuth_temp_logo.svg"
   width="1174.7548"
   height="1158.799"
   inkscape:version="1.4 (e7c3feb1, 2024-10-09)"
   xmlns:inkscape="http://www.inkscape.org/namespaces/inkscape"
   xmlns:sodipodi="http://sodipodi.sourceforge.net/DTD/sodipodi-0.dtd"
   xmlns="http://www.w3.org/2000/svg"
   xmlns:svg="http://www.w3.org/2000/svg">
  <defs
     id="defs45" />
  <sodipodi:namedview
     id="namedview45"
     pagecolor="#ffffff"
     bordercolor="#000000"
     borderopacity="0.25"
     inkscape:showpageshadow="2"
     inkscape:pageopacity="0.0"
     inkscape:pagecheckerboard="true"
     inkscape:deskcolor="#d1d1d1"
     showgrid="false"
     inkscape:zoom="0.8767209"
     inkscape:cx="544.64311"
     inkscape:cy="530.38544"
     inkscape:window-width="1512"
     inkscape:window-height="945"
     inkscape:window-x="0"
     inkscape:window-y="38"
     inkscape:window-maximized="0"
     inkscape:current-layer="g45" />
  <g
     id="g45"
     transform="translate(-131.63637,-147.59229)">
    <path
       fill="#fefefe"
       d="m 1124.19,877.06 -0.22,73.52 c 0,0.90833 -0.1348,1.80829 -0.4,2.67 -0.8867,2.87333 -2.3067,6.14333 -4.26,9.81 -5.5979,4.52368 -11.7087,8.92707 -17.85,12.41 L 750.97,1176.3 c -8.41333,4.8133 -16.81,9.64 -25.19,14.48 -3.36,1.9467 -7.44333,2.8533 -12.25,2.72 -3.06,0.2267 -6,0.01 -8.82,-0.65 -2.09333,-0.4867 -4.78667,-1.6667 -8.08,-3.54 -55.13333,-31.3733 -150.75333,-86.06 -286.86,-164.06 -29.47333,-16.8867 -59.65667,-33.96333 -90.55,-51.23 -10.04,-5.61 -19.35,-20.57 -19.35,-32.02 0.007,-7.98667 0.03,-15.97333 0.07,-23.96 l 0.28,-263.08 c 0.12667,-45.06667 0.11667,-90.13667 -0.03,-135.21 -0.0267,-8.72 3.26667,-15.77 9.88,-21.15 2.13333,-1.73333 4.82333,-3.55 8.07,-5.45 34.10667,-19.96 54.21,-31.69667 60.31,-35.21 89.94,-51.84 179.88667,-103.66333 269.84,-155.47 l 48.99,-28.19 c 2.78,-1.3 4.76,-2.15333 5.94,-2.56 8.65333,-3.00667 16.62,-2.44 23.9,1.7 130.56667,74.22667 259.04333,147.82 385.43,220.78 8,4.62 11.89,16.63 11.87,25.3 -0.26,119.17333 -0.3367,238.36 -0.23,357.56 z"
       id="path7"
       sodipodi:nodetypes="cccccccccccccccccccccccccc" />
    <g
       stroke-width="2"
       fill="none"
       stroke-linecap="butt"
       id="g15">
      <path
         stroke="#3e2167"
         d="m 724.93,306.16 q -0.85,3.16 -0.87,8.84 -0.16,42.91 -0.27,89.26 a 0.83,0.83 0 0 1 -0.83,0.83 h -21 a 1.09,1.08 89.7 0 1 -1.08,-1.08 l -0.24,-96.79"
         id="path8" />
      <path
         stroke="#3e2167"
         d="m 976.76,586.93 0.16,20.61 a 0.58,0.58 0 0 0 0.87,0.49 l 115.25,-67.57"
         id="path9" />
      <path
         stroke="#0a0a1b"
         d="m 1091.5502,926.72246 c -0.04,-0.0384 0.8184,4.03501 0.7759,4.00761"
         id="path10"
         sodipodi:nodetypes="cc" />
      <path
         stroke="#3e2167"
         d="M 1092.54,929.32 979.58,863.39 a 0.79,0.79 0 0 0 -1.19,0.68 l 0.08,23.06 a 2.18,2.16 15.3 0 0 1.08,1.87 l 105.35,60.9"
         id="path11" />
      <path
         stroke="#3e2167"
         d="m 724.72,1156.74 q -0.4,-1.11 -0.39,-2.24 0.34,-47.68 0.3,-106.67 a 0.57,0.56 -90 0 0 -0.56,-0.57 l -22.82,0.08 a 0.63,0.62 90 0 0 -0.62,0.63 l 0.05,109.73"
         id="path12" />
    </g>
    <path
       fill="#773cbb"
       d="m 724.93,306.16 q -0.85,3.16 -0.87,8.84 -0.16,42.91 -0.27,89.26 a 0.83,0.83 0 0 1 -0.83,0.83 h -21 a 1.09,1.08 89.7 0 1 -1.08,-1.08 l -0.24,-96.79 12.2,-7.13 a 1.42,1.41 44.4 0 1 1.41,-0.01 z"
       id="path17" />
    <path
       fill="#050613"
       d="m 724.93,306.16 354.01,202.49 c 0.4613,0.27108 0.4668,0.93448 0.01,1.2 l -101.78,59.93 c -0.12435,0.0744 -0.20323,0.20963 -0.21,0.36 l -0.2,16.79 0.16,20.61 c 0.009,0.44104 0.48802,0.71067 0.87,0.49 l 115.25,-67.57 0.27,389 c -0.2133,-0.20667 -0.47,-0.25333 -0.77,-0.14 L 979.58,863.39 c -0.52617,-0.30894 -1.18904,0.0698 -1.19,0.68 l 0.08,23.06 c 5.3e-4,0.76785 0.41164,1.47969 1.08,1.87 l 105.35,60.9 -360.18,206.84 c -0.26667,-0.74 -0.39667,-1.4867 -0.39,-2.24 0.22667,-31.7867 0.32667,-67.3433 0.3,-106.67 0,-0.3148 -0.25072,-0.57 -0.56,-0.57 l -22.82,0.08 c -0.34242,0 -0.62,0.2821 -0.62,0.63 l 0.05,109.73 c -6.78,-3.7533 -13.40667,-7.4933 -19.88,-11.22 -162.52667,-93.6133 -275.80667,-158.57667 -339.84,-194.89 -4.5,-2.56 -9.24,-6.22 -9.26,-11.59 -0.0333,-7.99333 -0.05,-12.24333 -0.05,-12.75 0.12667,-120.34667 0.23667,-240.69 0.33,-361.03 l -0.01,-23.78 0.0732,-1.22523 0.0367,-0.61477 114.77,67.45 c 0.29898,0.16756 0.66806,-0.0473 0.67,-0.39 l -0.03,-20.78 -0.06,-15.58 c 5.1e-4,-0.36988 -0.19421,-0.7097 -0.51,-0.89 l -99.28,-58.5 c -0.4316,-0.25964 -0.4316,-0.88354 0,-1.13 l 353,-203.56 0.24,96.79 c 0.005,0.59804 0.48742,1.07997 1.08,1.08 h 21 c 0.4584,0 0.83,-0.3716 0.83,-0.83 0.0733,-30.9 0.16333,-60.65333 0.27,-89.26 0.0133,-3.78667 0.30333,-6.73333 0.87,-8.84 z"
       id="path18"
       sodipodi:nodetypes="ccccccccccccccccccsccccccccccccccccccccccscccc" />
    <path
       stroke="#bb9ddd"
       stroke-width="2"
       fill="none"
       stroke-linecap="butt"
       d="M 962.86,585.5 711.32,730.34 a 2.26,2.24 44.3 0 1 -2.22,0.02 q -6.07,-3.32 -13.17,-7.53 -11.09,-6.57 -113.92,-67.31 -2.15,-1.27 -118.38,-69.38 -1.55,-0.9 -1.93,-2.01"
       id="path19" />
    <path
       fill="#773cbb"
       d="m 626.61943,399.12749 v 16.17759 a 1.1763433,1.2537355 0 0 1 -0.58817,1.08877 l -159.06432,99.08909 a 2.7344822,2.9143851 0 0 1 -2.73448,0.011 q -2.56938,-1.57267 -7.08901,-4.37708 -1.5891,-0.98979 -2.06376,-1.93559 a 2.7689145,2.5923582 88.52792 0 1 0.96996,-3.70622 q 103.74523,-64.56737 165.35879,-103.42218 4.18943,-2.63944 4.73633,-3.15633 a 0.28892642,0.30793503 0 0 1 0.47466,0.23095 z"
       id="path20"
       style="stroke-width:1.06528" />
    <path
       fill="#773cbb"
       d="m 798.79057,399.86617 a 0.31978528,0.33579407 0 0 1 0.48484,-0.29247 l 172.66342,106.82584 a 0.74272711,0.7799088 0 0 1 0,1.34318 l -11.09965,6.80254 a 1.1416432,1.2166028 11.642962 0 1 -0.7943,0.16248 q -1.91871,-0.34663 -3.90963,-1.58148 -55.36412,-34.29433 -156.69479,-96.47039 a 1.3210024,1.3967034 2.0010257 0 1 -0.64989,-1.20236 z"
       id="path21"
       style="stroke-width:1.05707" />
    <path
       fill="#fefefe"
       d="M 962.86,585.5 711.32,730.34 a 2.26,2.24 44.3 0 1 -2.22,0.02 q -6.07,-3.32 -13.17,-7.53 -11.09,-6.57 -113.92,-67.31 -2.15,-1.27 -118.38,-69.38 -1.55,-0.9 -1.93,-2.01 c 1.35,-8.54 5.27,-18.8 12.93,-23.26 q 121.95,-70.97 209.09,-120.9 12.99,-7.44 16.68,-9.3 8.46,-4.26 17.56,-2.6 3.38,0.62 11.32,5.11 9.93,5.62 10.87,6.16 103.4,59.94 212.67,124.13 a 7.53,7.52 84.6 0 1 1.82,1.51 q 7.71,8.77 8.22,20.52 z"
       id="path22" />
    <path
       fill="#050613"
       d="M 493.55,581.24 712.4,454.17 a 1.24,1.24 0 0 1 1.26,0 q 99.93,57.71 216.65,127.03 0.68,0.41 0.82,0.7 a 0.45,0.45 0 0 1 -0.19,0.57 Q 823.36,645.2 713.8,707.56 q -1.82,1.03 -3.19,1.15 a 2.05,2.01 -33.2 0 1 -1.11,-0.22 q -5.2,-2.67 -12.08,-6.66 C 631.88,663.79 560.41,622.39 493.54,582.69 a 0.84,0.84 0 0 1 0.01,-1.45 z"
       id="path23" />
    <path
       fill="#773cbb"
       d="m 447.49,586.88 0.03,20.78 a 0.45,0.45 0 0 1 -0.67,0.39 l -114.77,-67.45 -0.1,-20.72 a 0.51,0.51 0 0 1 0.76,-0.44 z"
       id="path24" />
    <path
       fill="#773cbb"
       d="m 1093.04,540.46 -115.25,67.57 a 0.58,0.58 0 0 1 -0.87,-0.49 l -0.16,-20.61 115.26,-66.92 a 0.63,0.63 0 0 1 0.95,0.54 z"
       id="path25" />
    <path
       fill="#fefefe"
       d="m 618.74,590.68 -0.03,-8.27 a 1.89,1.89 0 0 1 0.94,-1.64 L 710,528.31 a 1.89,1.89 0 0 1 1.9,0 l 91.49,52.83 a 1.89,1.89 0 0 1 0.94,1.63 l 0.03,8.31 a 1.89,1.89 0 0 1 -0.95,1.64 l -91.5,52.82 a 1.89,1.89 0 0 1 -1.9,-0.01 l -90.34,-53.22 a 1.89,1.89 0 0 1 -0.93,-1.63 z"
       id="path26" />
    <path
       fill="#050613"
       d="m 710.64,626.26 -65.21,-37.65 a 1.34,1.34 0 0 1 -0.01,-2.31 l 64.97,-37.98 a 1.34,1.34 0 0 1 1.34,0 l 65.21,37.65 a 1.34,1.34 0 0 1 0.01,2.31 l -64.97,37.98 a 1.34,1.34 0 0 1 -1.34,0 z"
       id="path28" />
    <path
       fill="#773cbb"
       d="m 461.7,584.13 c 0.25333,0.74 0.89667,1.41 1.93,2.01 77.48667,45.40667 116.94667,68.53333 118.38,69.38 68.55333,40.49333 106.52667,62.93 113.92,67.31 4.73333,2.80667 9.12333,5.31667 13.17,7.53 0.69547,0.38426 1.53851,0.37666 2.22,-0.02 L 962.86,585.5 c 0.24667,6.30667 0.36,16.22333 0.34,29.75 -0.16667,97.29333 -0.24333,183.54333 -0.23,258.75 0,1.71333 -0.15333,3.79667 -0.46,6.25 -0.0691,0.60924 -8.90666,9.15442 -22.61465,18.69428 C 931.07845,904.44869 917.35,912.65 898.71,923.47 c -25.34,14.71333 -80.23,46.64 -164.67,95.78 -6.32667,3.68 -11.07,5.91 -14.23,6.69 -5.4,1.3333 -10.93,1.5433 -16.59,0.63 -2.64667,-0.4267 -6.15667,-1.93 -10.53,-4.51 -67.79333,-39.99333 -127.90667,-75.20667 -180.34,-105.64 -16.42667,-9.53333 -26.15333,-15.1 -29.18,-16.7 -4.04667,-2.14 -7.07,-4.18 -9.07,-6.12 -3.71333,-3.60667 -6.54,-6.68333 -8.48,-9.23 -0.23919,-0.31895 -0.44054,-0.6646 -0.6,-1.03 l -3.7,-8.49 c -0.27885,-0.63737 -0.4738,-1.30625 -0.58,-1.99 -0.20667,-1.38667 -0.30667,-4.17333 -0.3,-8.36 0.15333,-143.36667 0.34333,-236.18 0.57,-278.44 0,-0.43333 0.23,-1.07667 0.69,-1.93 z"
       id="path29"
       sodipodi:nodetypes="cccccccccccccccccccccccccc" />
    <path
       fill="#050613"
       d="m 694.72,991.75 a 0.53,0.53 0 0 1 -0.8,0.46 L 484.46,871.28 a 3.56,3.54 -77.4 0 1 -1.77,-2.8 q -0.23,-2.76 -0.24,-5.73 -0.21,-74.05 0.46,-235.88 0.02,-3.42 0.2,-5.34 a 0.54,0.53 18.2 0 1 0.81,-0.4 l 209.47,124.73 a 2.75,2.74 15.5 0 1 1.33,2.35 z"
       id="path30" />
    <path
       fill="#050613"
       d="m 724.86,993.85 -0.82,-246.11 a 0.53,0.53 0 0 1 0.26,-0.46 L 938.12,623.12 a 0.53,0.53 0 0 1 0.8,0.46 v 247.28 a 0.53,0.53 0 0 1 -0.26,0.46 L 725.65,994.3 a 0.53,0.53 0 0 1 -0.79,-0.45 z"
       id="path31" />
    <path
       fill="#773cbb"
       d="m 397.81,820.19 -16.34,9.55 a 0.66,0.66 0 0 1 -0.99,-0.57 V 639.38 a 0.66,0.66 0 0 1 1,-0.57 l 16.34,9.63 a 0.66,0.66 0 0 1 0.32,0.57 v 170.61 a 0.66,0.66 0 0 1 -0.33,0.57 z"
       id="path32" />
    <path
       fill="#773cbb"
       d="m 1040.47,829.33 -16.13,-9.24 a 0.32,0.32 0 0 1 -0.16,-0.27 l -0.56,-169.35 a 0.32,0.32 0 0 1 0.15,-0.26 l 16.69,-10.79 a 0.32,0.32 0 0 1 0.49,0.27 v 189.36 a 0.32,0.32 0 0 1 -0.48,0.28 z"
       id="path33" />
    <path
       fill="#fefefe"
       d="m 634.09,871.6 c -2.26,2.25 -4.17,2.07 -6.92,0.46 Q 586.59,848.32 558.28,832 q -2.33,-1.34 -4.16,-3 a 1.74,1.73 17.7 0 1 -0.55,-1.06 q -0.33,-2.61 -0.31,-7.94 0.28,-75.32 0.27,-92.52 0,-2.77 2.52,-4.21 1.83,-1.06 3,-0.84 a 0.63,0.62 -23.8 0 1 0.24,0.09 l 73.86,43.98 a 2.82,2.81 15.4 0 1 1.38,2.42 v 101.64 a 1.46,1.45 -22.4 0 1 -0.44,1.04 z"
       id="path34" />
    <path
       fill="#fefefe"
       d="m 863.06,723.26 3.36,2 a 2.27,2.26 15.5 0 1 1.1,1.94 v 100.34 a 2.4,2.4 0 0 1 -1.22,2.09 q -35.48,19.86 -73.35,42.08 c -3.3,1.94 -5.48,1.02 -5.5,-2.96 q -0.22,-49.21 0.17,-100.39 a 2.01,1.99 -15.3 0 1 0.98,-1.7 q 41.38,-24.69 70.16,-41.66 2.14,-1.26 3.97,-1.78 a 0.44,0.4 -35.5 0 1 0.33,0.04 z"
       id="path35" />
    <path
       fill="#050613"
       d="m 618.84,848.41 a 0.6,0.59 15.3 0 1 -0.9,0.51 l -48.29,-28.76 a 1.13,1.13 0 0 1 -0.55,-0.97 v -71.81 a 0.8,0.8 0 0 1 1.21,-0.68 q 21.99,13.52 47.09,28.44 1.38,0.83 1.39,3.37 0.01,13.33 0.05,69.9 z"
       id="path36" />
    <path
       fill="#050613"
       d="m 802.51,847.64 q 0.32,-55.88 0.4,-69.05 0.02,-2.51 1.39,-3.32 24.87,-14.61 46.66,-27.86 a 0.79,0.79 0 0 1 1.19,0.68 l -0.36,70.94 a 1.12,1.12 0 0 1 -0.55,0.95 l -47.85,28.16 a 0.59,0.59 0 0 1 -0.88,-0.5 z"
       id="path37" />
    <path
       fill="#773cbb"
       d="m 1093.3613,929.20268 c 0.07,5.35908 -0.4307,9.55988 -1.0112,12.21537 -0.5975,2.73306 -4.4594,7.47057 -8.0367,9.06857 L 979.55,889 c -0.66836,-0.39031 -1.07947,-1.10215 -1.08,-1.87 l -0.08,-23.06 c 9.6e-4,-0.61016 0.66383,-0.98894 1.19,-0.68 z"
       id="path39"
       sodipodi:nodetypes="cscccccc" />
    <path
       fill="#773cbb"
       d="m 332.74114,945.1802 a 3.8811803,3.7841713 4.2940534 0 1 -1.1477,-2.73848 l 0.0717,-11.31501 a 2.1018402,2.1771093 76.343457 0 1 0.33815,-1.13351 q 0.59435,-0.90279 3.2074,-2.40745 36.13186,-20.82444 73.31919,-41.8796 c 12.11227,-6.8512 24.41924,-13.87293 37.13609,-21.28587 a 0.65582504,0.64198665 0 0 1 0.99399,0.56174 q -0.16396,10.47241 -0.0512,21.36612 0.0102,1.87581 -0.45088,2.80869 a 1.6150212,1.6805272 88.979441 0 1 -0.67632,0.70218 c -19.18288,10.4724 -29.35842,16.33053 -43.17173,23.95412 q -33.89796,18.68783 -63.08217,35.70048 a 1.8813199,1.9310557 78.371364 0 1 -2.34663,-0.28087 z"
       id="path40"
       style="stroke-width:1.01386" />
    <path
       fill="#773cbb"
       d="m 804.08,1055.08 -0.06,-15.26 a 0.36,0.36 0 0 1 0.18,-0.31 l 166.17,-95.94 a 0.36,0.36 0 0 1 0.54,0.31 v 15.29 a 0.36,0.36 0 0 1 -0.18,0.31 l -166.11,95.91 a 0.36,0.36 0 0 1 -0.54,-0.31 z"
       id="path42" />
    <path
       fill="#773cbb"
       d="m 620.25,1039.71 0.04,13.93 a 1.05,1.05 0 0 1 -1.57,0.92 l -163.6,-93.77 a 1.05,1.05 0 0 1 -0.53,-0.91 l -0.04,-13.93 a 1.05,1.05 0 0 1 1.57,-0.92 l 163.6,93.77 a 1.05,1.05 0 0 1 0.53,0.91 z"
       id="path43" />
    <path
       fill="#773cbb"
       d="m 724.72,1156.74 -11.14,6.17 a 3.36,3.34 44.5 0 1 -3.2,0.02 l -9.7,-5.23 -0.05,-109.73 a 0.63,0.62 90 0 1 0.62,-0.63 l 22.82,-0.08 a 0.57,0.56 -90 0 1 0.56,0.57 q 0.04,58.99 -0.3,106.67 -0.01,1.13 0.39,2.24 z"
       id="path45" />
  </g>
</svg>
